<svg id="Capa_1" enable-background="new 0 0 512 512" height="512" viewBox="0 0 512 512" width="512" xmlns="http://www.w3.org/2000/svg"><g><path d="m347.284 364.048c-.28-3.209-2.161-6.177-4.955-7.789l-35.648-20.583v-41.197c0-3.574-1.908-6.877-5.005-8.663l-40.669-23.468c-3.094-1.785-6.902-1.787-9.996-.003l-40.681 23.474c-3.094 1.786-5 5.088-5 8.66v41.195l-35.67 20.582c-3.097 1.786-5.005 5.089-5.005 8.663v46.97c0 3.574 1.908 6.877 5.005 8.663l40.67 23.467c1.547.894 3.273 1.34 5 1.34s3.453-.446 5-1.34l35.675-20.584 35.68 20.587c1.546.892 3.271 1.337 4.995 1.337 1.727 0 3.453-.446 5-1.34l40.648-23.47c3.053-1.762 4.999-5.137 4.999-8.66v-46.97c.001-.286-.018-.587-.043-.871zm-121.954-63.795 30.672-17.699 30.679 17.703v35.417l-30.675 17.7-30.675-17.698v-35.423zm-10 123.559-30.675-17.7v-35.415l30.675-17.702 30.676 17.7v35.419zm81.348.001-30.672-17.698v-35.423l30.672-17.698 30.65 17.698v35.423z"/><path d="m483.381 221.144c8.81-13.434 7.611-31.651-3.126-47.544l-43.583-64.53v-38.45c15.01-4.346 26.021-18.206 26.021-34.598-.001-19.863-16.16-36.022-36.021-36.022h-341.361c-19.862 0-36.021 16.159-36.021 36.021 0 16.392 11.011 30.253 26.021 34.598v38.449l-43.586 64.535c-10.726 15.899-11.91 34.121-3.093 47.554.859 1.309 1.809 2.529 2.813 3.687-5.724 23.382-8.63 47.549-8.63 71.93 0 42.467 8.494 83.056 25.246 120.641 16.027 35.957 39.453 67.827 67.746 92.165 1.814 1.561 4.128 2.419 6.521 2.419h267.352c2.394 0 4.707-.858 6.521-2.419 28.29-24.335 51.711-56.206 67.732-92.167 16.742-37.579 25.231-78.168 25.231-120.639 0-24.464-2.902-48.619-8.617-71.899 1.017-1.167 1.966-2.409 2.834-3.731zm-414.091-185.123c0-8.833 7.187-16.021 16.021-16.021h341.36c8.834 0 16.021 7.188 16.021 16.021s-7.187 16.021-16.021 16.021h-125.824c-5.522 0-10 4.478-10 10s4.478 10 10 10h115.824v30.087h-321.36v-30.086h115.739c5.522 0 10-4.478 10-10s-4.478-10-10-10h-125.739c-8.834 0-16.021-7.188-16.021-16.022zm316.637 455.979h-259.842c-52.969-47.064-83.269-117.986-83.269-195.225 0-20.635 2.229-41.096 6.62-60.991 5.342 1.327 11.133 1.514 17.061.407 8.95-1.685 15.884-6.764 21.782-13.049 9.598 8.578 21.239 13.329 33.226 13.328h.018c12.133-.005 23.911-4.879 33.564-13.662 9.687 8.96 21.32 13.785 33.643 13.79h.017c12.336-.001 23.986-4.832 33.689-13.807 9.628 8.717 21.406 13.552 33.57 13.552 12.162 0 23.938-4.833 33.566-13.548 9.688 8.967 21.328 13.798 33.655 13.803h.017c12.329-.001 23.976-4.827 33.676-13.794 9.658 8.79 21.444 13.666 33.584 13.666 11.985 0 23.626-4.754 33.215-13.334 5.911 6.287 12.849 11.37 21.786 13.059 2.614.487 5.202.725 7.738.725 3.21 0 6.331-.389 9.314-1.13 4.383 19.817 6.609 40.276 6.609 60.985.001 77.254-30.288 148.175-83.239 195.225zm80.729-281.823c-3.518 5.364-10.05 7.746-17.465 6.361-5.159-.975-9.941-5.069-17.055-14.606-1.888-2.53-4.858-4.021-8.016-4.021-.001 0-.003 0-.005 0-3.158.001-6.13 1.495-8.016 4.028-6.978 9.37-16.068 14.531-25.597 14.531s-18.62-5.161-25.598-14.531c-1.886-2.533-4.857-4.026-8.015-4.028-.002 0-.004 0-.006 0-3.155 0-6.127 1.49-8.015 4.02-7.059 9.459-16.159 14.668-25.627 14.668-.003 0-.006 0-.009 0-9.461-.004-18.551-5.211-25.594-14.663-1.888-2.532-4.86-4.024-8.019-4.024s-6.132 1.492-8.019 4.025c-6.922 9.29-16.013 14.407-25.599 14.407s-18.677-5.117-25.599-14.407c-1.886-2.532-4.857-4.024-8.016-4.025 0 0-.002 0-.003 0-3.156 0-6.127 1.489-8.015 4.02-7.06 9.459-16.16 14.668-25.628 14.668-.003 0-.006 0-.009 0-9.462-.004-18.551-5.211-25.594-14.663-1.888-2.533-4.861-4.025-8.021-4.024s-6.133 1.494-8.02 4.028c-6.974 9.367-16.062 14.527-25.589 14.531-.004 0-.007 0-.01 0-9.535 0-18.635-5.163-25.626-14.537-1.888-2.531-4.859-4.022-8.017-4.022-.003 0-.005 0-.008 0-3.16.003-6.133 1.498-8.018 4.034-7.08 9.525-11.857 13.616-17.023 14.589-7.411 1.379-13.941-.99-17.461-6.351-4.378-6.67-3.274-16.163 2.95-25.391l42.322-62.663h66.714l-23.16 32.723c-3.191 4.509-2.123 10.749 2.385 13.939 1.755 1.242 3.771 1.839 5.769 1.839 3.135 0 6.223-1.471 8.171-4.224l31.338-44.277h64.164v38.5c0 5.522 4.478 10 10 10s10-4.478 10-10v-38.5h64.164l31.338 44.277c1.948 2.753 5.036 4.224 8.171 4.224 1.997 0 4.014-.597 5.769-1.839 4.508-3.19 5.576-9.431 2.385-13.939l-23.16-32.723h66.686l42.323 62.665c6.243 9.225 7.354 18.715 2.983 25.381z"/><path d="m255.949 72.043h.057c5.522 0 9.972-4.478 9.972-10s-4.506-10-10.028-10-10 4.478-10 10 4.477 10 9.999 10z"/></g></svg>