<?xml version="1.0"?>
<svg xmlns="http://www.w3.org/2000/svg" xmlns:xlink="http://www.w3.org/1999/xlink" version="1.1" id="Capa_1" x="0px" y="0px" viewBox="0 0 448.003 448.003" style="enable-background:new 0 0 448.003 448.003;" xml:space="preserve" width="512px" height="512px" class=""><g><g>
	<g>
		<path d="M392.001,8c0-4.418-3.582-8-8-8h-48c-4.418,0-8,3.582-8,8v256c0.016,0.957,0.206,1.903,0.56,2.792h-0.056l24,64    c1.543,4.14,6.151,6.245,10.291,4.701c2.175-0.811,3.891-2.526,4.701-4.701l24-64h-0.056c0.354-0.889,0.544-1.835,0.56-2.792V8z     M360.001,305.216L347.545,272h24.912L360.001,305.216z M376.001,256h-32V80h32V256z M376.001,64h-32V48h32V64z M376.001,32h-32    V16h32V32z" data-original="#000000" class="active-path" data-old_color="#000000" fill="#FFFFFF"/>
	</g>
</g><g>
	<g>
		<path d="M408.001,368h-96c-4.418,0-8,3.582-8,8v64c0,4.418,3.582,8,8,8h96c4.418,0,8-3.582,8-8v-64    C416.001,371.582,412.42,368,408.001,368z M368.001,432h-48v-48h48V432z M400.001,432h-16v-48h16V432z" data-original="#000000" class="active-path" data-old_color="#000000" fill="#FFFFFF"/>
	</g>
</g><g>
	<g>
		<rect x="336.001" y="400" width="16" height="16" data-original="#000000" class="active-path" data-old_color="#000000" fill="#FFFFFF"/>
	</g>
</g><g>
	<g>
		<path d="M264.001,32V8c0-4.418-3.582-8-8-8h-48c-4.418,0-8,3.582-8,8v344c0,4.418,3.582,8,8,8v5.6l-14.656,21.96    c-1.794,2.688-1.794,6.192,0,8.88l32,48c2.451,3.676,7.418,4.669,11.094,2.218c0.878-0.586,1.632-1.339,2.218-2.218l32-48    c1.794-2.688,1.794-6.192,0-8.88l-14.656-21.96V360c4.418,0,8-3.582,8-8V48c8.837,0,16,7.163,16,16v104h16V64    C296.001,46.327,281.674,32,264.001,32z M216.001,16h32v16h-32V16z M216.001,48h32v16h-32V48z M216.001,80h32v264h-32V80z     M232.001,425.6l-22.4-33.6l13.056-19.56c0.874-1.316,1.341-2.86,1.344-4.44v-8h16v8c0.003,1.58,0.47,3.124,1.344,4.44    L254.401,392L232.001,425.6z" data-original="#000000" class="active-path" data-old_color="#000000" fill="#FFFFFF"/>
	</g>
</g><g>
	<g>
		<rect x="224.001" y="384" width="16" height="16" data-original="#000000" class="active-path" data-old_color="#000000" fill="#FFFFFF"/>
	</g>
</g><g>
	<g>
		<path d="M152.001,0h-112c-4.418,0-8,3.582-8,8v432c0,4.418,3.582,8,8,8h112c4.418,0,8-3.582,8-8V8    C160.001,3.582,156.42,0,152.001,0z M144.001,432h-96v-32h64v-16h-64v-32h40v-16h-40v-32h40v-16h-40v-32h40v-16h-40v-32h40v-16    h-40v-32h40v-16h-40v-32h40V96h-40V64h64V48h-64V16h96V432z" data-original="#000000" class="active-path" data-old_color="#000000" fill="#FFFFFF"/>
	</g>
</g></g> </svg>
