<svg id="Capa_1" enable-background="new 0 0 511.999 511.999" height="512" viewBox="0 0 511.999 511.999" width="512" xmlns="http://www.w3.org/2000/svg"><g><path d="m455.81 314.153c4.052.909 8.056-1.644 8.961-5.675 2.903-12.934 4.6-26.208 5.063-39.56h2.415c11.023 0 19.992-8.969 19.992-19.993v-26.178c0-11.024-8.969-19.993-19.992-19.993h-7.368l9.985-5.765c9.699-5.6 13.035-18.047 7.436-27.748l-49.058-84.969c-5.613-9.722-18.023-13.049-27.747-7.435l-13.413 7.744 9.007-33.616c2.908-10.844-3.517-21.971-14.362-24.878l-94.771-25.393c-10.814-2.894-21.977 3.544-24.878 14.363l-2.74 10.226c-1.072 4.001 1.302 8.114 5.303 9.186 4.001 1.07 8.113-1.303 9.186-5.304l2.74-10.226c.759-2.829 3.681-4.517 6.507-3.757l94.771 25.394c2.837.76 4.517 3.67 3.757 6.507l-12.889 48.104-48.421 27.956c-.898-10.377-9.631-18.547-20.236-18.547h-36.148l-5.147-19.208 6.151-22.955c1.072-4.001-1.302-8.113-5.303-9.186-3.393-.907-6.865.661-8.496 3.597l-11.197-41.789c-2.899-10.817-14.057-17.258-24.878-14.361l-94.77 25.393c-10.844 2.907-17.27 14.034-14.362 24.878l9.007 33.616-13.413-7.744c-9.723-5.613-22.133-2.288-27.747 7.435l-49.057 84.969c-5.601 9.7-2.266 22.147 7.435 27.748l9.985 5.765h-7.368c-11.023 0-19.992 8.969-19.992 19.993v26.178c0 11.024 8.969 19.993 19.992 19.993h2.415c1.394 40.433 14.047 79.254 36.806 112.708 23.583 34.666 56.446 61.458 95.036 77.481.395.164.607.569.505.962l-9.231 35.439c-2.174 8.343 4.119 16.491 12.746 16.491h155.947c8.622 0 14.921-8.142 12.746-16.491l-9.231-35.438c-.103-.394.109-.798.505-.962 52.068-21.62 94.283-63.899 115.82-115.998 1.583-3.828-.237-8.214-4.065-9.796-3.83-1.583-8.215.237-9.796 4.066-20.03 48.45-59.289 87.77-107.711 107.875-7.261 3.015-11.245 11.01-9.269 18.597l8.635 33.148h-151.216l8.635-33.149c1.976-7.587-2.009-15.582-9.269-18.596-72.235-29.993-119.704-98.669-122.585-176.336h43.143c4.143 0 7.5-3.358 7.5-7.5s-3.357-7.5-7.5-7.5h-60.567c-2.753 0-4.992-2.24-4.992-4.993v-26.178c0-2.753 2.239-4.993 4.992-4.993h432.5c2.753 0 4.992 2.24 4.992 4.993v26.178c0 2.753-2.239 4.993-4.992 4.993h-336.932c-4.143 0-7.5 3.358-7.5 7.5s3.357 7.5 7.5 7.5h319.508c-.456 12.246-2.028 24.416-4.69 36.275-.907 4.04 1.633 8.052 5.675 8.959zm-127.782-175.268 84.969-49.057c2.531-1.462 5.782-.609 7.257 1.945l49.058 84.968c1.464 2.537.592 5.793-1.945 7.258l-32.484 18.755h-76.115l-32.685-56.612c-1.468-2.543-.6-5.788 1.945-7.257zm-2.66 36.021 16.078 27.848h-16.078zm-15-49.996v77.844h-108.738c0-16.705 0-60.286 0-77.844 0-2.93 2.383-5.313 5.312-5.313h98.113c2.931 0 5.313 2.383 5.313 5.313zm-123.738 77.844h-16.078l16.078-27.848zm-61.234-155.671c-.76-2.836.92-5.747 3.757-6.506l94.771-25.394c2.829-.757 5.748.927 6.507 3.756l18.289 68.254c.023.094.048.187.075.28l4.588 17.123h-46.439c-10.605 0-19.338 8.17-20.236 18.547l-48.421-27.956zm-80.763 136.916c-2.537-1.465-3.409-4.72-1.944-7.257l49.057-84.969c1.471-2.546 4.719-3.411 7.257-1.945l84.969 49.057c2.542 1.468 3.413 4.712 1.945 7.257l-32.685 56.612h-76.115z"/><path d="m220.099 447.334c-4.143 0-7.5 3.358-7.5 7.5s3.357 7.5 7.5 7.5h71.8c4.143 0 7.5-3.358 7.5-7.5s-3.357-7.5-7.5-7.5z"/></g></svg>