<?xml version="1.0" encoding="iso-8859-1"?>
<!-- Generator: Adobe Illustrator 19.0.0, SVG Export Plug-In . SVG Version: 6.00 Build 0)  -->
<svg version="1.1" id="Capa_1" xmlns="http://www.w3.org/2000/svg" xmlns:xlink="http://www.w3.org/1999/xlink" x="0px" y="0px"
	 viewBox="0 0 512 512" style="enable-background:new 0 0 512 512;" xml:space="preserve">
<g>
	<g>
		<path d="M361.387,246.537l-0.004-0.007c-2.051-5.128-7.87-7.619-12.997-5.567c-5.128,2.051-7.621,7.875-5.569,13.002
			c1.564,3.91,5.319,6.289,9.288,6.289c1.236,0,2.493-0.23,3.711-0.718C360.944,257.485,363.438,251.665,361.387,246.537z"/>
	</g>
</g>
<g>
	<g>
		<path d="M482.669,137.452c-8.962-2.722-18.449-1.791-26.711,2.622c-8.262,4.413-14.312,11.779-17.034,20.741
			c-2.396,7.89-0.55,16.608,4.938,23.32c5.44,6.652,13.587,10.331,21.267,9.599c5.498-0.524,9.53-5.406,9.006-10.904
			c-0.524-5.498-5.407-9.529-10.904-9.006c-0.746,0.072-2.479-0.629-3.887-2.349c-0.75-0.918-1.915-2.768-1.284-4.847
			c1.17-3.851,3.769-7.016,7.319-8.912s7.627-2.295,11.477-1.126c11.256,3.419,17.632,15.358,14.213,26.614
			c-4.674,15.39-20.997,24.104-36.386,19.432c-20.555-6.243-32.199-28.045-25.956-48.601c5.384-17.727,19.708-30.985,37.668-35.059
			c11.212,3.672,23.177,5.666,35.601,5.666c5.523,0,10-4.477,10-10s-4.477-10-10-10c-52.186,0-94.642-42.456-94.642-94.642
			c0-5.523-4.477-10-10-10s-10,4.477-10,10c0,19.739,5.015,38.329,13.838,54.563c-29.589,5.69-99.613,23.022-174.122,69.239
			c-56.624,35.123-103.909,79.703-140.539,132.501C40.804,332.214,11.718,411.08,0.081,500.711c0.003,0,0.005,0,0.007,0.001
			c-0.257,1.976,0.067,4.035,1.038,5.902C2.876,509.978,6.331,512,9.995,512c0.783,0,1.576-0.092,2.363-0.284
			c2.026-0.492,50.35-12.434,114.485-45.266c37.631-19.265,72.872-41.761,104.745-66.866
			c39.914-31.438,74.631-67.08,103.187-105.935c3.271-4.451,2.314-10.709-2.135-13.98c-4.453-3.27-10.71-2.313-13.98,2.136
			c-62.167,84.586-143.292,137.27-200.4,166.57c-25.028,12.842-47.764,22.442-66.025,29.338
			C167.706,373.128,258.839,275.421,316.897,209.4c35.592-40.474,63.075-73.894,81.444-96.904
			c-7.914,31.073-18.583,60.916-31.877,89.116c-2.355,4.996-0.214,10.954,4.781,13.31c4.995,2.354,10.955,0.214,13.31-4.781
			c17.257-36.605,30.244-75.841,38.728-116.876c5.631,5.326,11.802,10.086,18.418,14.194c-15.208,8.89-26.791,23.259-32.108,40.762
			c-9.448,31.107,8.172,64.102,39.28,73.55c4.745,1.441,9.542,2.127,14.263,2.127c21.086,0,40.634-13.688,47.072-34.883
			C516.831,167.207,504.478,144.075,482.669,137.452z M24.033,476.188c1.91-10.967,4.094-21.734,6.549-32.302
			c3.856,5.293,8.721,9.867,14.39,13.409C38.077,463.572,31.096,469.871,24.033,476.188z M60.673,442.909
			c-13.739-5.46-22.113-19.842-19.502-34.757c2.677-15.29,16.092-26.079,31.218-26.079c1.826,0,3.678,0.157,5.538,0.483
			c11.565,2.024,20.961,10.205,24.657,21.008C89.003,416.537,75.031,429.665,60.673,442.909z M132.389,374.732
			c-7.533-2.046-14.058-6.592-18.602-13.024c-5.142-7.278-7.13-16.103-5.599-24.848c2.823-16.128,16.971-27.507,32.925-27.507
			c1.925,0,3.879,0.166,5.84,0.509c12.95,2.267,23.136,11.614,26.559,23.892C160.298,347.152,146.584,360.83,132.389,374.732z
			 M236.589,259.423c-1.531,8.745-6.399,16.369-13.707,21.468c-7.326,5.111-16.227,7.072-25.058,5.529
			c-8.833-1.546-16.535-6.416-21.689-13.712c-5.142-7.279-7.13-16.103-5.6-24.847c2.824-16.128,16.972-27.507,32.925-27.507
			c1.925,0,3.879,0.166,5.84,0.509c8.833,1.546,16.535,6.416,21.689,13.712C236.131,241.854,238.119,250.678,236.589,259.423z
			 M280.362,220.26c-11.916-4.796-19.344-17.424-17.07-30.417c2.344-13.394,14.097-22.844,27.35-22.844
			c1.6,0,3.224,0.138,4.854,0.423c8.315,1.456,15.395,6.52,19.461,13.656C304.27,193.39,292.73,206.483,280.362,220.26z
			 M328.464,165.408c-7.184-9.192-17.614-15.601-29.52-17.685c-25.996-4.549-50.823,12.798-55.353,38.671
			c-3.492,19.95,6.242,39.396,22.876,49.242c-3.24,3.563-6.53,7.165-9.872,10.806c-1.144-8.33-4.27-16.328-9.27-23.407
			c-8.224-11.642-20.503-19.41-34.577-21.874c-29.069-5.089-56.848,14.313-61.914,43.25c-2.456,14.028,0.728,28.175,8.964,39.835
			c8.224,11.642,20.503,19.41,34.576,21.874c1.815,0.318,3.632,0.531,5.445,0.664c-3.639,3.773-7.326,7.576-11.05,11.401
			c-7.506-14.505-21.458-25.063-38.368-28.023c-29.074-5.089-56.849,14.313-61.914,43.249c-2,11.423-0.259,22.924,4.903,33.097
			c-3.788-1.674-7.813-2.917-12.016-3.653c-8.979-1.572-17.825-0.721-25.875,2.066c36.606-89.733,97.289-161.316,181.429-213.697
			c28.728-17.885,57.002-31.323,82.37-41.362c-2.887,4.314-4.875,9.214-5.797,14.477c-1.747,9.977,0.517,20.036,6.373,28.326
			c2.926,4.142,6.574,7.593,10.741,10.227C329.904,163.725,329.184,164.566,328.464,165.408z M343.833,147.302
			c-3.042-1.302-5.672-3.415-7.623-6.176c-2.761-3.909-3.829-8.645-3.008-13.338c0.821-4.692,3.435-8.785,7.36-11.523
			c3.063-2.138,6.639-3.252,10.313-3.252c1.054,0,2.116,0.092,3.176,0.277c4.862,0.852,9.067,3.604,11.777,7.526
			C359.217,128.887,351.882,137.736,343.833,147.302z M378.671,105.003c-4.37-4.64-9.869-8.166-16.066-10.153
			c11.749-3.507,22.078-6.133,30.554-8.067C389.086,91.971,384.254,98.065,378.671,105.003z"/>
	</g>
</g>
<g>
</g>
<g>
</g>
<g>
</g>
<g>
</g>
<g>
</g>
<g>
</g>
<g>
</g>
<g>
</g>
<g>
</g>
<g>
</g>
<g>
</g>
<g>
</g>
<g>
</g>
<g>
</g>
<g>
</g>
</svg>
