<?xml version="1.0"?>
<svg xmlns="http://www.w3.org/2000/svg" xmlns:xlink="http://www.w3.org/1999/xlink" version="1.1" id="Capa_1" x="0px" y="0px" viewBox="0 0 511.999 511.999" style="enable-background:new 0 0 511.999 511.999;" xml:space="preserve" width="512px" height="512px"><g transform="matrix(0.913061 0 0 0.913061 22.2564 22.2564)"><g>
	<g>
		<path d="M473.851,228.231H448.5c-0.402-3.938-1.114-7.847-2.138-11.685c-2.597-9.729-1.664-20.149,2.626-29.341    c2.996-6.419,4.838-12.922,5.473-19.326c1.528-15.385-3.339-28.105-13.762-36.58l4.518-8.182    c2.002-3.627,0.687-8.189-2.939-10.191c-3.627-2.002-8.19-0.685-10.191,2.939l-4.505,8.159c-5.207-1.765-10.521-2.36-15.819-1.795    c6.329-30.646,2.47-56.124-2.615-73.384l8.554-26.424c1.401-4.331,0.833-9.036-1.562-12.908    c-2.394-3.873-6.349-6.484-10.852-7.167l-14.362-2.173c-4.193-0.633-8.517,0.501-11.857,3.117    c-3.342,2.615-5.482,6.539-5.873,10.765l-2.607,28.19c-13.976,27.197-37.96,66.39-74.518,103.292    c-2.285-1.114-4.6-2.1-6.942-2.943c-9.956-32.185-39.768-54.351-73.794-54.351c-28.713,0-54.575,15.792-67.906,40.387    c-11.353-13.169-23.036-19.523-34.803-18.862c-12.653,0.695-31.109,10.128-47.183,51.114c-8.62,21.981-14.315,48.584-14.624,67.35    H38.148c-17.619,0-31.953,14.335-31.953,31.954c0,15.804,11.536,28.958,26.628,31.502v48.982    c0,45.582,17.871,88.557,50.321,121.008s75.425,50.321,121.008,50.321h103.696c45.582,0,88.558-17.871,121.008-50.321    c32.45-32.45,50.321-75.425,50.321-121.008v-48.982c15.092-2.544,26.628-15.697,26.628-31.502    C505.804,242.566,491.47,228.231,473.851,228.231z M420.13,137.516c0,0-4.863,7.78,2.02,11.856    c6.883,4.076,11.112-4.606,11.112-4.606c5.074,5.237,7.181,12.482,6.273,21.631c-0.469,4.716-1.86,9.583-4.139,14.464    c-5.777,12.378-7.03,26.425-3.526,39.552c0.686,2.573,1.196,5.186,1.533,7.817H315.572c0.798-6.517,2.669-12.811,5.623-18.782    c7.217-14.595,19.702-25.355,35.157-30.3c13.27-4.247,24.621-12.778,31.964-24.021c3.082-4.718,6.504-8.555,10.171-11.403    C405.744,138.085,412.996,136.012,420.13,137.516z M388.315,15.1c0.163-0.128,14.949,2.109,15.067,2.299    c0.116,0.189-7.197,22.781-7.197,22.781l-10.166-1.909C386.019,38.271,388.151,15.228,388.315,15.1z M381.397,53.952    c-4.154,18.181-9.215,35.274-15.089,50.91c-1.457,3.878,0.505,8.202,4.383,9.658c0.869,0.327,7.231,1.584,9.658-4.383    c6.522-16.033,11.326-33.875,15.621-52.635c4.358,17.055,6.827,41.47-0.988,70.493c-1.921,1.134-11.582,7.733-19.224,18.93    c-5.242,7.681-12.814,13.839-21.918,17.221c5.02-7.93,9.719-16.316,14.062-25.135c1.83-3.716,0.301-8.212-3.415-10.042    c-3.716-1.828-8.212-0.3-10.042,3.415c-7.754,15.744-16.67,30.008-26.578,42.563c-5.012-8.265-11.378-15.486-18.776-21.27    C343.556,118.292,366.961,81.183,381.397,53.952z M215.332,103.241c24.438,0,46.171,14.187,56.292,35.627    c-8.122-0.576-16.258,0.407-24.048,3.019c-6.051,2.027-11.706,4.973-16.851,8.748c-2.038-2.95-5.955-4.099-9.319-2.535    c-2.852,1.324-4.474,4.212-4.329,7.17c-6.437,0.078-12.788,1.129-18.892,3.176c-9.361,3.138-17.654,8.419-24.495,15.36    c-4.776-11.601-10.29-22.353-16.152-31.48C166.952,118.809,189.735,103.241,215.332,103.241z M79.404,166.357    c9.974-25.433,22.699-40.989,34.041-41.613c0.254-0.014,24.77-5.238,49.646,63.196c-2.45,4.362-4.491,9.061-6.043,14.065    c-1.227,3.956,0.986,8.157,4.943,9.385c0.739,0.229,7.521,1.167,9.385-4.943c5.025-16.47,16.55-28.936,31.577-33.777    c10.204-3.287,18.765-2.484,20.34-2.7l2.867,6.173c3.765,6.652,8.938,4.118,9.961,3.643c3.757-1.744,5.388-6.204,3.643-9.961    l-2.493-5.367c0.403-0.285,6.639-5.4,15.072-8.346c12.353-4.316,26.064-2.901,38.459,3.545    c11.424,5.94,20.855,15.769,26.917,27.921c-10.939,9.112-16.389,31.813-17.246,40.654H65.804    C66.102,209.599,72.565,183.798,79.404,166.357z M418.248,451.071C389.713,481.733,349.423,497,307.847,497H204.152    c-41.576,0-81.77-15.356-110.401-45.928c-47.749-50.984-45.928-112.646-45.928-112.646l30.015,16.7    c5.135,2.857,10.769,4.286,16.402,4.286c5.632,0,11.266-1.429,16.4-4.285c3.619-2.014,4.921-6.58,2.907-10.2    c-2.013-3.619-6.577-4.921-10.2-2.907c-5.703,3.173-12.514,3.173-18.217-0.001l-37.308-20.758v-29.121h416.354v29.12    l-37.317,20.76c-5.703,3.172-12.513,3.172-18.214,0l-28.417-15.809c-10.271-5.715-22.532-5.714-32.802,0.001l-28.406,15.807    c-5.705,3.173-12.515,3.172-18.218,0l-28.409-15.807c-10.271-5.714-22.534-5.716-32.803,0l-28.406,15.806    c-5.704,3.174-12.514,3.174-18.218,0l-28.405-15.806c-10.271-5.714-22.534-5.716-32.803,0c-3.62,2.014-4.921,6.581-2.907,10.2    c2.014,3.619,6.581,4.921,10.2,2.907c5.705-3.174,12.514-3.173,18.217,0l28.405,15.806c10.269,5.714,22.533,5.716,32.804,0    l28.406-15.806c5.703-3.174,12.514-3.174,18.217,0l28.409,15.807c10.271,5.714,22.532,5.712,32.803,0l28.407-15.807    c5.705-3.174,12.515-3.173,18.216-0.001l28.417,15.809c5.135,2.857,10.767,4.286,16.4,4.285c5.632,0,11.266-1.429,16.399-4.285    l30.024-16.703C464.176,338.426,465.187,400.636,418.248,451.071z M473.851,277.139H38.148c-9.348,0-16.953-7.605-16.953-16.954    c0-9.349,7.605-16.954,16.953-16.954h435.704c9.348,0,16.953,7.605,16.953,16.954    C490.804,269.534,483.199,277.139,473.851,277.139z" data-original="#000000" class="active-path" data-old_color="#000000" fill="#FFFFFF"/>
	</g>
</g></g> </svg>
