<svg id="Capa_1" enable-background="new 0 0 512 512" height="512" viewBox="0 0 512 512" width="512" xmlns="http://www.w3.org/2000/svg"><g><path d="m396 252h-280c-8.284 0-15 6.716-15 15v160c0 8.284 6.716 15 15 15h280c8.284 0 15-6.716 15-15v-160c0-8.284-6.716-15-15-15zm-15 160h-250v-130h250z"/><path d="m505.762 165.611-64.762-55.51v-55.101c0-30.327-24.673-55-55-55h-260c-30.327 0-55 24.673-55 55v25.787l-24.394-24.393c-5.857-5.857-15.355-5.857-21.213 0s-5.858 15.355 0 21.213l24.394 24.393h-33.787c-8.284 0-15 6.716-15 15s6.716 15 15 15h29.451l-39.213 33.611c-4.766 4.085-6.484 10.706-4.307 16.593 2.178 5.888 7.792 9.796 14.069 9.796 10.451 0 14.912 2.976 21.665 7.479 4.404 2.937 9.391 6.243 15.962 8.724l-8.375 16.75c-9.324 18.65-14.252 39.526-14.252 60.375v161.672c0 35.841 29.159 65 65 65h320c35.841 0 65-29.159 65-65v-161.672c0-20.849-4.928-41.726-14.252-60.374l-8.384-16.768c6.551-2.478 11.528-5.773 15.925-8.702 6.766-4.506 11.236-7.484 21.711-7.484 6.277 0 11.891-3.908 14.068-9.796 2.178-5.887.46-12.508-4.306-16.593zm-404.762-110.611c0-13.785 11.215-25 25-25h260c13.785 0 25 11.215 25 25v47h-310zm350 392c0 19.299-15.701 35-35 35h-320c-19.299 0-35-15.701-35-35v-161.672c0-16.216 3.833-32.453 11.085-46.958l13.497-26.993c13.566-1.817 21.832-7.314 28.705-11.898 6.753-4.504 11.214-7.479 21.666-7.479s14.912 2.976 21.666 7.479c8.364 5.578 18.774 12.521 38.311 12.521 19.541 0 29.952-6.942 38.318-12.52 6.756-4.505 11.219-7.48 21.675-7.48 10.446 0 14.905 2.975 21.656 7.479 8.362 5.578 18.77 12.521 38.304 12.521 19.544 0 29.958-6.941 38.325-12.519 6.759-4.505 11.225-7.481 21.687-7.481 10.475 0 14.945 2.978 21.711 7.484 6.894 4.592 15.191 10.099 28.819 11.903l13.491 26.982c7.251 14.506 11.084 30.743 11.084 46.959zm6.658-272.484c-6.766 4.507-11.236 7.484-21.711 7.484s-14.945-2.978-21.711-7.484c-8.372-5.577-18.791-12.516-38.342-12.516-19.544 0-29.958 6.941-38.326 12.519-6.759 4.505-11.225 7.481-21.687 7.481-10.446 0-14.905-2.975-21.656-7.479-8.362-5.578-18.77-12.521-38.304-12.521-19.54 0-29.952 6.941-38.317 12.52-6.756 4.505-11.219 7.48-21.675 7.48-10.451 0-14.913-2.976-21.666-7.479-8.364-5.579-18.774-12.521-38.311-12.521s-29.947 6.942-38.311 12.521c-6.753 4.503-11.214 7.479-21.665 7.479s-14.913-2.976-21.666-7.479c-2.188-1.459-4.516-3.012-7.109-4.508l44.348-38.013h328.902l44.335 38.002c-2.601 1.498-4.935 3.053-7.128 4.514z"/><path d="m176 362h160c8.284 0 15-6.716 15-15s-6.716-15-15-15h-160c-8.284 0-15 6.716-15 15s6.716 15 15 15z"/></g></svg>